# xmcd
#
# Track frame offsets: 
#        150
#        11195
#        24871
#        39025
#        51907
#        66290
#        83925
#        100557
#        114319
#        128050
#
# Disc length: 1888 seconds
#
# Revision: 0
# Processed by: cddbd v1.5.2PL0 Copyright (c) Steve Scherf et al.
# Submitted via: ExactAudioCopy v1.3
#
DISCID=71075e0a
DTITLE=Linda Ronstadt - Simple Dreams
DYEAR=1977
DGENRE=Country
TTITLE0=It's So Easy
TTITLE1=Carmelita
TTITLE2=Simple Man, Simple Dream
TTITLE3=Sorrow Lives Here
TTITLE4=I Never Will Marry
TTITLE5=Blue Bayou
TTITLE6=Poor Poor Pitiful Me
TTITLE7=Maybe I'm Right
TTITLE8=Tumbling Dice
TTITLE9=Old Paint
EXTD=
EXTT0=
EXTT1=
EXTT2=
EXTT3=
EXTT4=
EXTT5=
EXTT6=
EXTT7=
EXTT8=
EXTT9=
PLAYORDER=
